<?xml version="1.0" encoding="iso-8859-1"?>
<!-- Generator: Adobe Illustrator 19.0.0, SVG Export Plug-In . SVG Version: 6.00 Build 0)  -->
<svg version="1.1" id="Capa_1" xmlns="http://www.w3.org/2000/svg" xmlns:xlink="http://www.w3.org/1999/xlink" x="0px" y="0px"
	 viewBox="0 0 512 512" style="enable-background:new 0 0 512 512;" xml:space="preserve">
<circle style="fill:#0D0A22;" cx="256" cy="259.75" r="252.25"/>
<g>
	<path style="fill:#2BBBFA;" d="M145.238,162.356c0-7.524,6.923-14.147,17.457-14.147h62.304c39.73,0,71.033,18.661,71.033,69.227
		v1.505c0,50.566-32.507,69.829-74.043,69.829h-29.798v65.013c0,9.631-11.738,14.447-23.477,14.447
		c-11.738,0-23.477-4.815-23.477-14.447L145.238,162.356L145.238,162.356z M192.192,189.143v63.509h29.798
		c16.856,0,27.089-9.632,27.089-30.099v-3.31c0-20.467-10.234-30.099-27.089-30.099L192.192,189.143L192.192,189.143z"/>
	<path style="fill:#2BBBFA;" d="M366.154,326.695c0-20.768-70.431-6.621-70.431-57.187c0-22.273,13.845-46.353,56.586-46.353
		c26.186,0,51.168,9.03,51.168,21.671c0,6.02-6.02,21.972-16.856,21.972c-8.127,0-17.457-9.03-33.711-9.03
		c-12.039,0-17.156,5.117-17.156,9.631c0,16.856,71.033,4.515,71.033,57.489c0,28.293-20.467,46.353-58.091,46.353
		c-31.604,0-57.187-12.942-57.187-27.691c0-7.224,6.02-20.467,15.35-20.467c9.632,0,16.555,13.544,40.633,13.544
		C363.445,336.627,366.154,330.909,366.154,326.695z"/>
</g>
<path style="fill:#ABF3FF;" d="M507.026,234.749c-0.947-1.194-1.977-2.347-3.078-3.449L284.427,11.768
	c-1.091-1.081-2.234-2.1-3.418-3.048C273.925,3.068,265.204,0,255.999,0c-9.205,0-17.936,3.068-25.009,8.721
	c-1.194,0.947-2.327,1.967-3.418,3.048L8.041,231.299c-1.102,1.102-2.121,2.245-3.068,3.439c-0.813,8.227-1.225,16.566-1.225,25.009
	c0,8.422,0.412,16.752,1.215,24.957c0.947,1.194,1.977,2.348,3.079,3.449l219.531,219.521c1.112,1.112,2.275,2.152,3.49,3.109
	c8.206,0.803,16.525,1.215,24.937,1.215s16.731-0.412,24.937-1.215c1.215-0.958,2.378-1.997,3.49-3.109l219.521-219.521
	c1.112-1.102,2.142-2.265,3.089-3.459c0.803-8.206,1.215-16.525,1.215-24.947C508.251,251.315,507.839,242.975,507.026,234.749z
	 M494.486,278.692L274.965,498.213c-5.066,5.066-11.799,7.856-18.965,7.856s-13.9-2.79-18.965-7.856L17.503,278.692
	c-5.066-5.066-7.846-11.799-7.846-18.965s2.78-13.9,7.846-18.965L237.034,21.241c5.066-5.066,11.799-7.856,18.965-7.856
	c7.166,0,13.9,2.79,18.965,7.856l219.521,219.521c5.066,5.066,7.856,11.799,7.856,18.965
	C502.341,266.893,499.551,273.626,494.486,278.692z"/>
<g>
</g>
<g>
</g>
<g>
</g>
<g>
</g>
<g>
</g>
<g>
</g>
<g>
</g>
<g>
</g>
<g>
</g>
<g>
</g>
<g>
</g>
<g>
</g>
<g>
</g>
<g>
</g>
<g>
</g>
</svg>
