<svg xmlns="http://www.w3.org/2000/svg" width="223.237" height="521.654" viewBox="0 0 223.237 521.654">
  <g id="undraw_reviewed_docs_neeb" transform="translate(-623.783 0)">
    <rect id="Rectangle_15" data-name="Rectangle 15" width="206" height="2" transform="translate(641.02 515.788)" fill="#3f3d56"/>
    <path id="Tracé_1" data-name="Tracé 1" d="M765.971,223.569v13.79l9.652,15.168,6.9-27.579Z" fill="#a0616a"/>
    <path id="Tracé_2" data-name="Tracé 2" d="M941.082,283.058l7.54-2.153s11.765,2.153,11.765,15.942,2.758,68.946,2.758,68.946l-2.758,31.715s4.137,1.379,2.758,5.516-4.137,13.789-5.516,12.41-1.379-4.137-1.379-4.137-22.063,4.137-20.684,0,1.379-13.789,2.758-13.789-1.379-41.368-1.379-41.368Z" transform="translate(-176.49 -182.212)" fill="#e6e6e6"/>
    <path id="Tracé_3" data-name="Tracé 3" d="M639.8,218.743l17.926,22.063,22.063,26.2,6.894-31.715-12.326-1.935-12.494-18.749Z" fill="#a0616a"/>
    <path id="Tracé_4" data-name="Tracé 4" d="M861.1,393.371s-20.684,11.031-6.895,85.493l4.137,74.462L861.1,676.05h27.578L894.2,554.7l16.547-77.219,26.2,68.946-9.652,122.724,37.231,5.516,12.41-137.892-22.063-102.04-16.547-28.957-3.447-7.584Z" transform="translate(-176.49 -182.212)" fill="#2f2e41"/>
    <path id="Tracé_5" data-name="Tracé 5" d="M865.241,671.913l-4.137,12.41s-5.516,22.063,13.789,19.3S887.3,688.46,887.3,688.46l-1.379-16.547Z" transform="translate(-176.49 -182.212)" fill="#2f2e41"/>
    <path id="Tracé_6" data-name="Tracé 6" d="M928.672,667.776s-4.137,13.789-4.137,20.684,2.758,9.895,2.758,9.895,78.6,5.273,77.219-1.621-9.652-9.652-9.652-9.652l-19.3-4.137-13.789-11.031-27.578-6.895Z" transform="translate(-176.49 -182.212)" fill="#2f2e41"/>
    <circle id="Ellipse_1" data-name="Ellipse 1" cx="26.199" cy="26.199" r="26.199" transform="translate(694.268 13.974)" fill="#a0616a"/>
    <path id="Tracé_7" data-name="Tracé 7" d="M739.772,51.2l4.136,38.61-9.652,17.926-23.442-26.2-2.758-22.063Z" fill="#a0616a"/>
    <path id="Tracé_8" data-name="Tracé 8" d="M907.988,273.4l-21.627-17.2-4.573,6.167-34.473,13.789,1.379,60.672s1.379,51.02,9.652,56.536L854.9,398.2l82.046,3.447v-37.23l17.926-79.977-31.715-17.926-3.947-5.583Z" transform="translate(-176.49 -182.212)" fill="#e6e6e6"/>
    <path id="Tracé_9" data-name="Tracé 9" d="M852.831,278.921l-2.008-4.161-4.886,1.4s-9.652,4.137-16.547,22.063-26.2,57.915-26.2,57.915-5.516,6.895-1.379,13.789,8.273,22.063,8.273,22.063-4.137-1.379-1.379,4.137,2.758,11.031,11.031,9.652,24.82-5.516,23.442-9.652-2.758-11.031-5.516-11.031-6.895-20.684-6.895-20.684l2.758-11.031,20.684-24.82Z" transform="translate(-176.49 -182.212)" fill="#e6e6e6"/>
    <path id="Tracé_10" data-name="Tracé 10" d="M899.714,203.081s-4.137,0-4.137-1.379c0,0-14.423-.44-20.311,5.985s-4.509-3.227-4.509-3.227-15.168-6.895-2.758-13.789l1.379,1.379s2.758-4.137,12.41-5.516l-1.379-1.379s0-1.379,6.895-1.379,24.82-6.895,26.2,8.274c0,0,11.031-4.137,11.031,9.652s-1.379,20.684-1.379,20.684-2.758-6.895-8.273-2.758S899.714,203.081,899.714,203.081Z" transform="translate(-176.49 -182.212)" fill="#2f2e41"/>
  </g>
</svg>
